<?xml version="1.0" encoding="UTF-8"?> <svg xmlns="http://www.w3.org/2000/svg" id="Laag_1" data-name="Laag 1" viewBox="0 0 718.67 239.56"> <defs> <style>.cls-1{fill:#e20613;}.cls-2{fill:#1d1d1b;}.cls-3{fill:#a8a8a7;}</style> </defs> <title>4logo geonovation header groot</title> <path class="cls-1" d="M40.8,48.93c17.87,0,27.6,8.93,27.6,8.93L65.46,61.6a40.7,40.7,0,0,0-24.66-8c-19.9,0-34.38,15.83-34.38,36.3s14.14,36.3,33.71,36.3c17,0,27.14-13,27.14-13V97.9H53.13V93.38h19v36.07H67.27v-6.89c0-1.7.11-3.4.11-3.4h-.22a36.42,36.42,0,0,1-27,11.65c-22.06,0-38.8-18-38.8-40.94S18.41,48.93,40.8,48.93Z"></path> <path class="cls-1" d="M110.7,71.55c15.38,0,23.07,12.1,23.07,25.78,0,1.25-.22,3.06-.22,3.06H88.19c0,16.4,11.09,25.78,24.21,25.78a25.63,25.63,0,0,0,17.53-7.12l2.6,4a30.83,30.83,0,0,1-20.13,7.8c-16,0-29.18-11.53-29.18-29.52C83.22,82.18,96.22,71.55,110.7,71.55ZM128.79,96c-.56-13.8-8.82-20-18.2-20-10.41,0-20,6.78-22.06,20Z"></path> <path class="cls-1" d="M172,71.55a29.08,29.08,0,0,1,29.29,29.29c0,16.85-13.12,30-29.29,30s-29.29-13.12-29.29-30A29.08,29.08,0,0,1,172,71.55Zm0,54.62c13.46,0,24.31-11,24.31-25.33a24.32,24.32,0,1,0-48.63,0C147.68,115.2,158.54,126.17,172,126.17Z"></path> <path class="cls-2" d="M214.18,50.29h4.53l45.12,62.09c2.61,3.62,6.45,10,6.45,10h.23s-.57-6-.57-10V50.29h4.86v79.16h-4.52L225.15,67.36c-2.6-3.62-6.44-10-6.44-10h-.23s.57,6,.57,10v62.09h-4.87Z"></path> <path class="cls-2" d="M317,71.55a29.08,29.08,0,0,1,29.29,29.29c0,16.85-13.12,30-29.29,30s-29.29-13.12-29.29-30A29.08,29.08,0,0,1,317,71.55Zm0,54.62c13.46,0,24.32-11,24.32-25.33a24.32,24.32,0,1,0-48.64,0C292.67,115.2,303.53,126.17,317,126.17Z"></path> <path class="cls-2" d="M349,72.91h5.09l17.41,44.33c1,2.71,1.93,6.11,1.93,6.11h.22s.91-3.4,1.93-6.11L393,72.91h5L375.8,129.45h-4.52Z"></path> <path class="cls-2" d="M437.55,95h3.74V93c0-12.56-6.45-16.85-15.5-16.85a26.6,26.6,0,0,0-16.17,5.42l-2.72-3.84s6.79-6.22,19.12-6.22c13,0,20,7.24,20,21.37v36.53h-4.75V122a26,26,0,0,1,.45-5.09h-.23c.12,0-5.09,13.91-19.79,13.91-9.16,0-19.23-5.09-19.23-16.4C402.49,95.19,427.49,95,437.55,95ZM422,126.4c12.32,0,19.34-12.78,19.34-24v-3h-3.62c-9.62,0-30.2,0-30.2,14.7C407.47,120.07,412.33,126.4,422,126.4Z"></path> <path class="cls-2" d="M463.79,77.54h-7.46v-4.3h7.46V57.18h4.75V73.24h14.82v4.3H468.54v31.1c0,14.93,8.94,16.86,13.46,16.86a12.89,12.89,0,0,0,2.6-.23v4.41a15.59,15.59,0,0,1-2.82.23c-5.89,0-18-2.15-18-20.93Z"></path> <path class="cls-2" d="M496.48,50.29h5.65v8.25h-5.65Zm.45,22.62h4.75v56.54h-4.75Z"></path> <path class="cls-2" d="M541.6,71.55a29.08,29.08,0,0,1,29.3,29.29c0,16.85-13.12,30-29.3,30s-29.29-13.12-29.29-30A29.08,29.08,0,0,1,541.6,71.55Zm0,54.62c13.46,0,24.32-11,24.32-25.33a24.32,24.32,0,1,0-48.63,0C517.29,115.2,528.14,126.17,541.6,126.17Z"></path> <path class="cls-2" d="M581.53,72.91h4.75v10a23.93,23.93,0,0,1-.45,4.64h.22a26.06,26.06,0,0,1,24-16c14.7,0,18.66,8.71,18.66,22v35.85h-4.75V95.3c0-9.84-1.24-19.11-13.91-19.11a24,24,0,0,0-22.85,18,28,28,0,0,0-.9,7.69v27.59h-4.75Z"></path> <path class="cls-3" d="M235.19,179.37c-.06,3.26-.29,6-2.28,8.84a10.83,10.83,0,0,1-9.23,4.38c-7,0-11.92-4.77-11.92-11.8,0-7.26,4.93-12,12.13-12,4.6,0,8.16,2.08,10.09,6.26l-5.52,2.31a5.06,5.06,0,0,0-4.84-3.56c-3.82,0-5.81,3.65-5.81,7.06s2.08,7,5.9,7c2.53,0,4.45-1.3,4.69-3.88h-4.75v-4.57Z"></path> <path class="cls-3" d="M243.67,174.42v3.73h6.55v4.93h-6.55v3.85h6.91v4.92H237.85V169.49h12.73v4.93Z"></path> <path class="cls-3" d="M260,174.42v3.73h6.56v4.93H260v3.85h6.91v4.92H254.16V169.49h12.72v4.93Z"></path> <path class="cls-3" d="M276.28,174.42v3.73h6.37v4.93h-6.37v8.77h-5.82V169.49h12.85v4.93Z"></path> <path class="cls-3" d="M295.43,191.85h-5.81V174.42h-4.81v-4.93h15.43v4.93h-4.81Z"></path> <path class="cls-3" d="M336,179.37c-.06,3.26-.29,6-2.28,8.84a10.82,10.82,0,0,1-9.22,4.38c-7,0-11.93-4.77-11.93-11.8,0-7.26,4.93-12,12.13-12,4.6,0,8.16,2.08,10.09,6.26l-5.52,2.31a5.06,5.06,0,0,0-4.83-3.56c-3.83,0-5.82,3.65-5.82,7.06s2.08,7,5.91,7c2.52,0,4.44-1.3,4.68-3.88h-4.74v-4.57Z"></path> <path class="cls-3" d="M344.47,174.42v3.73H351v4.93h-6.55v3.85h6.91v4.92H338.65V169.49h12.73v4.93Z"></path> <path class="cls-3" d="M378.57,180.26c0,7.23-5.19,12.33-12.37,12.33s-12.37-5.1-12.37-12.33c0-6.76,5.94-11.51,12.37-11.51S378.57,173.5,378.57,180.26Zm-18.69,0a6.33,6.33,0,1,0,12.64,0,6.33,6.33,0,0,0-12.64,0Z"></path> <path class="cls-3" d="M381.26,169.49h8.24a11.18,11.18,0,1,1,0,22.36h-8.24Zm5.81,17.44h1.31c3.47,0,6.43-1.9,6.43-6.26,0-4-2.64-6.25-6.37-6.25h-1.37Z"></path> <path class="cls-3" d="M409.25,188l-1.54,3.88h-6.17l8.6-22.36h6.34l8.43,22.36h-6.2L417.26,188Zm4.06-11.57h-.06l-2.4,7.12h4.83Z"></path> <path class="cls-3" d="M433.83,191.85H428V174.42h-4.8v-4.93h15.42v4.93h-4.8Z"></path> <path class="cls-3" d="M444.65,188l-1.54,3.88h-6.17l8.6-22.36h6.34l8.43,22.36h-6.2L452.66,188Zm4.06-11.57h-.06l-2.4,7.12h4.83Z"></path> <path class="cls-3" d="M474.74,169.49h5.72L485,181.44l4.8-11.95h5.79L499,191.85h-5.81L491.52,179h0l-5.37,12.87h-2.32L478.65,179h-.06l-1.86,12.87h-5.79Z"></path> <path class="cls-3" d="M507.23,174.42v3.73h6.56v4.93h-6.56v3.85h6.91v4.92H501.42V169.49h12.72v4.93Z"></path> <path class="cls-3" d="M523.54,174.42v3.73h6.55v4.93h-6.55v3.85h6.91v4.92H517.73V169.49h12.72v4.93Z"></path> <path class="cls-3" d="M552.63,191.85h-7.24l-5.48-8.6h-.06v8.6H534V169.49h8.69c4.42,0,7.77,2.11,7.77,6.88,0,3.09-1.72,5.76-4.89,6.32Zm-12.78-12.33h.56c1.9,0,4-.36,4-2.79s-2.13-2.79-4-2.79h-.56Z"></path> <path class="cls-3" d="M572,183.94H572l4.69-14.45h4.63l4.38,14.45h.06L590,169.49h6l-7.15,22.36H583l-3.92-13H579l-4.39,13h-5.9L562,169.49h6.05Z"></path> <path class="cls-3" d="M600.8,188l-1.54,3.88h-6.17l8.6-22.36H608l8.42,22.36h-6.2L608.81,188Zm4.07-11.57h-.06l-2.41,7.12h4.84Z"></path> <path class="cls-3" d="M624,188l-1.55,3.88h-6.16l8.6-22.36h6.34l8.42,22.36h-6.19L632,188ZM628,176.4H628l-2.4,7.12h4.83Z"></path> <path class="cls-3" d="M660,191.85h-7.23l-5.49-8.6h-.06v8.6h-5.81V169.49h8.69c4.42,0,7.77,2.11,7.77,6.88,0,3.09-1.72,5.76-4.9,6.32Zm-12.78-12.33h.56c1.9,0,4-.36,4-2.79s-2.14-2.79-4-2.79h-.56Z"></path> <path class="cls-3" d="M661.58,169.49h8.24a11.18,11.18,0,1,1,0,22.36h-8.24Zm5.81,17.44h1.31c3.47,0,6.43-1.9,6.43-6.26,0-4-2.64-6.25-6.38-6.25h-1.36Z"></path> <path class="cls-3" d="M689.69,174.42v3.73h6.55v4.93h-6.55v3.85h6.91v4.92H683.87V169.49H696.6v4.93Z"></path> <path class="cls-1" d="M679.21,59.32l9.9-9.9a26.24,26.24,0,0,0-16.73-7.63V55.86A12.3,12.3,0,0,1,679.21,59.32Z"></path> <path class="cls-1" d="M668.58,55.86V41.79a26.32,26.32,0,0,0-24.36,24.36h14.06A12.35,12.35,0,0,1,668.58,55.86Z"></path> <path class="cls-1" d="M658.28,70H644.22a26.31,26.31,0,0,0,24.36,24.36V80.25A12.35,12.35,0,0,1,658.28,70Z"></path> <path class="cls-1" d="M672.38,80.25V94.31A26.32,26.32,0,0,0,696.74,70H682.67A12.34,12.34,0,0,1,672.38,80.25Z"></path> <path class="cls-2" d="M710.33,64.35a39.79,39.79,0,0,0-8-20.48L681.91,64.35Z"></path> </svg> 